<svg xmlns="http://www.w3.org/2000/svg"  viewBox="0 0 64 64" width="64px" height="64px" baseProfile="basic"><linearGradient id="QGRdQ0EwGN7ECYOheC_dqa" x1="32" x2="32" y1="51" y2="13" gradientUnits="userSpaceOnUse"><stop offset="0" stop-color="#8ab4ff"/><stop offset="1" stop-color="#e492ff"/></linearGradient><path fill="url(#QGRdQ0EwGN7ECYOheC_dqa)" d="M14,51c-0.552,0-1-0.449-1-1V14c0-0.551,0.448-1,1-1h36c0.552,0,1,0.449,1,1v36	c0,0.551-0.448,1-1,1H14z M43.5,25H41v-4h-7v4h-4v-4h-7v4h-2.5c-0.828,0-1.5,0.672-1.5,1.5v13c0,0.828,0.672,1.5,1.5,1.5h23	c0.828,0,1.5-0.672,1.5-1.5v-13C45,25.672,44.328,25,43.5,25z"/><linearGradient id="QGRdQ0EwGN7ECYOheC_dqb" x1="32" x2="32" y1="55" y2="9" gradientUnits="userSpaceOnUse"><stop offset="0" stop-color="#1A6DFF"/><stop offset="1" stop-color="#C822FF"/></linearGradient><path fill="url(#QGRdQ0EwGN7ECYOheC_dqb)" d="M50,55H14c-2.757,0-5-2.243-5-5V14c0-2.757,2.243-5,5-5h36c2.757,0,5,2.243,5,5v36	C55,52.757,52.757,55,50,55z M14,11c-1.654,0-3,1.346-3,3v36c0,1.654,1.346,3,3,3h36c1.654,0,3-1.346,3-3V14c0-1.654-1.346-3-3-3H14	z M33.11,28l-4.4,10h2.18l4.4-10H33.11z M41.33,32.22l-4.3-3.49l-0.95,1.82L39.11,33l-3.03,2.45l0.95,1.82l4.3-3.49	c0.24-0.19,0.37-0.48,0.37-0.78S41.57,32.41,41.33,32.22z M22.3,33c0,0.3,0.13,0.59,0.37,0.78l4.3,3.49l0.95-1.82L24.89,33	l3.03-2.45l-0.95-1.82l-4.3,3.49C22.43,32.41,22.3,32.7,22.3,33z"/></svg>