<svg xmlns="http://www.w3.org/2000/svg"  viewBox="0 0 64 64" width="64px" height="64px" baseProfile="basic"><path fill="none" stroke="#000003" stroke-linejoin="round" stroke-miterlimit="10" stroke-width="2" d="M53,51H10 c-2.209,0-4-1.791-4-4V15c0-2.209,1.791-4,4-4h19.938c1.212,0,2.268,0.825,2.562,2v0c0.294,1.175,1.35,2,2.562,2H53 c2.209,0,4,1.791,4,4v28C57,49.209,55.209,51,53,51z"/><linearGradient id="QCQdb2SC1V1WalcZimJ_1a" x1="31.5" x2="31.5" y1="10" y2="52" gradientUnits="userSpaceOnUse"><stop offset="0" stop-color="#3060ff"/><stop offset="1" stop-color="#ce00ff"/></linearGradient><path fill="none" stroke="url(#QCQdb2SC1V1WalcZimJ_1a)" stroke-linecap="round" stroke-linejoin="round" stroke-miterlimit="10" stroke-width="2" d="M53,51H10c-2.209,0-4-1.791-4-4V15c0-2.209,1.791-4,4-4h19.938c1.212,0,2.268,0.825,2.562,2v0c0.294,1.175,1.35,2,2.562,2H53 c2.209,0,4,1.791,4,4v28C57,49.209,55.209,51,53,51z"/><linearGradient id="QCQdb2SC1V1WalcZimJ_1b" x1="31.5" x2="31.5" y1="14" y2="48" gradientUnits="userSpaceOnUse"><stop offset="0" stop-color="#71c4ff"/><stop offset="1" stop-color="#e9a8ff"/></linearGradient><path fill="url(#QCQdb2SC1V1WalcZimJ_1b)" d="M53,18H35.062 c-2.498,0-4.678-1.631-5.396-4H10c-0.551,0-1,0.448-1,1v32c0,0.552,0.449,1,1,1h43c0.551,0,1-0.448,1-1V19 C54,18.448,53.551,18,53,18z M28.402,33.325l-2.106,7.746l-4.867-6.383l-8.018,0.39l4.567-6.601l-2.849-7.505l7.689,2.304 l6.257-5.028l0.185,8.025l6.716,4.397L28.402,33.325z"/><linearGradient id="QCQdb2SC1V1WalcZimJ_1c" x1="33.705" x2="33.705" y1="17.247" y2="58" gradientUnits="userSpaceOnUse"><stop offset="0" stop-color="#3060ff"/><stop offset="1" stop-color="#ce00ff"/></linearGradient><path fill="url(#QCQdb2SC1V1WalcZimJ_1c)" d="M54.205,54.097l-24-20.345l6.103-2.14 c0.359-0.126,0.616-0.444,0.662-0.822s-0.126-0.749-0.445-0.958l-6.276-4.108l-0.173-7.5c-0.009-0.38-0.232-0.723-0.578-0.883 c-0.345-0.161-0.751-0.11-1.048,0.127l-5.848,4.699l-7.185-2.153c-0.365-0.108-0.76-0.002-1.019,0.276 c-0.259,0.279-0.338,0.681-0.203,1.036l2.662,7.014l-4.268,6.169c-0.217,0.313-0.237,0.723-0.052,1.055 c0.185,0.333,0.542,0.53,0.923,0.514l7.492-0.365l4.548,5.966c0.191,0.251,0.487,0.394,0.795,0.394 c0.063,0,0.128-0.006,0.192-0.019c0.374-0.073,0.673-0.352,0.773-0.719l1.762-6.478l22.197,22.491 C51.633,57.765,52.198,58,52.787,58C54.85,58,55.787,55.422,54.205,54.097z M27.437,33.062l-1.575,5.791l-3.638-4.772 c-0.19-0.249-0.484-0.394-0.795-0.394c-0.016,0-0.032,0-0.049,0.001l-5.994,0.292l3.415-4.935c0.188-0.271,0.229-0.616,0.113-0.924 l-2.13-5.611l5.748,1.723c0.314,0.094,0.657,0.027,0.914-0.179l4.678-3.759l0.139,6c0.007,0.329,0.176,0.633,0.452,0.813 l5.021,3.286l-5.663,1.986C27.76,32.49,27.523,32.745,27.437,33.062z"/></svg>